ffmpeg started on 2016-12-08 at 08:10:13
Report written to "Output/x264/results/ffmpeg/crowd_run_2160p50slower14000k.log"
Command line:
Tools/ffmpeg/ffmpeg -benchmark -y -i Input/y4m/crowd_run_2160p50.y4m -c:v libx264 -preset slower -b:v 14000k -an Output/x264/encoded/crowd_run_2160p50slower14000k.mkv
ffmpeg version N-82227-gdb23fde Copyright (c) 2000-2016 the FFmpeg developers
  built with gcc 5.4.0 (Ubuntu 5.4.0-6ubuntu1~16.04.2) 20160609
  configuration: --prefix=/home/jaroslav/ffmpeg_build --pkg-config-flags=--static --extra-cflags=-I/home/jaroslav/ffmpeg_build/include --extra-ldflags=-L/home/jaroslav/ffmpeg_build/lib --bindir=/home/jaroslav/bin --enable-gpl --enable-libass --enable-libfdk-aac --enable-libfreetype --enable-libmp3lame --enable-libopus --enable-libtheora --enable-libvorbis --enable-libvpx --enable-libx264 --enable-libx265 --enable-nvenc --enable-libmfx --enable-libxvid --enable-libgsm --enable-libopencore-amrnb --enable-version3 --enable-nonfree
  libavutil      55. 35.100 / 55. 35.100
  libavcodec     57. 66.101 / 57. 66.101
  libavformat    57. 57.100 / 57. 57.100
  libavdevice    57.  2.100 / 57.  2.100
  libavfilter     6. 66.100 /  6. 66.100
  libswscale      4.  3.100 /  4.  3.100
  libswresample   2.  4.100 /  2.  4.100
  libpostproc    54.  2.100 / 54.  2.100
Input #0, yuv4mpegpipe, from 'Input/y4m/crowd_run_2160p50.y4m':
  Duration: 00:00:10.00, start: 0.000000, bitrate: 4976642 kb/s
    Stream #0:0: Video: rawvideo (I420 / 0x30323449), yuv420p(progressive), 3840x2160, SAR 1:1 DAR 16:9, 50 fps, 50 tbr, 50 tbn, 50 tbc
[libx264 @ 0x3c6d1c0] using SAR=1/1
[libx264 @ 0x3c6d1c0] DPB size (8 frames, 259200 mbs) > level limit (5 frames, 184320 mbs)
[libx264 @ 0x3c6d1c0] using cpu capabilities: MMX2 SSE2Fast SSSE3 SSE4.2 AVX FMA3 AVX2 LZCNT BMI2
[libx264 @ 0x3c6d1c0] profile High, level 5.2
[libx264 @ 0x3c6d1c0] 264 - core 148 - H.264/MPEG-4 AVC codec - Copyleft 2003-2016 - http://www.videolan.org/x264.html - options: cabac=1 ref=8 deblock=1:0:0 analyse=0x3:0x133 me=umh subme=9 psy=1 psy_rd=1.00:0.00 mixed_ref=1 me_range=16 chroma_me=1 trellis=2 8x8dct=1 cqm=0 deadzone=21,11 fast_pskip=1 chroma_qp_offset=-2 threads=6 lookahead_threads=1 sliced_threads=0 nr=0 decimate=1 interlaced=0 bluray_compat=0 constrained_intra=0 bframes=3 b_pyramid=2 b_adapt=2 b_bias=0 direct=3 weightb=1 open_gop=0 weightp=2 keyint=250 keyint_min=25 scenecut=40 intra_refresh=0 rc_lookahead=60 rc=abr mbtree=1 bitrate=14000 ratetol=1.0 qcomp=0.60 qpmin=0 qpmax=69 qpstep=4 ip_ratio=1.40 aq=1:1.00
Output #0, matroska, to 'Output/x264/encoded/crowd_run_2160p50slower14000k.mkv':
  Metadata:
    encoder         : Lavf57.57.100
    Stream #0:0: Video: h264 (libx264) (H264 / 0x34363248), yuv420p, 3840x2160 [SAR 1:1 DAR 16:9], q=-1--1, 14000 kb/s, 50 fps, 1k tbn, 50 tbc
    Metadata:
      encoder         : Lavc57.66.101 libx264
    Side data:
      cpb: bitrate max/min/avg: 0/0/14000000 buffer size: 0 vbv_delay: -1
Stream mapping:
  Stream #0:0 -> #0:0 (rawvideo (native) -> h264 (libx264))
Press [q] to stop, [?] for help
frame=   19 fps=0.0 q=0.0 size=       0kB time=00:00:00.00 bitrate=N/A speed=   0x    frame=   26 fps= 21 q=0.0 size=       0kB time=00:00:00.00 bitrate=N/A speed=   0x    frame=   40 fps= 23 q=0.0 size=       0kB time=00:00:00.00 bitrate=N/A speed=   0x    frame=   53 fps= 23 q=0.0 size=       0kB time=00:00:00.00 bitrate=N/A speed=   0x    frame=   64 fps= 23 q=0.0 size=       0kB time=00:00:00.00 bitrate=N/A speed=   0x    frame=   67 fps= 11 q=0.0 size=       0kB time=00:00:00.00 bitrate=N/A speed=   0x    frame=   72 fps=9.4 q=32.0 size=       1kB time=-00:00:00.01 bitrate=N/A speed=N/A    frame=   73 fps=8.6 q=40.0 size=       1kB time=00:00:00.00 bitrate=5888.0kbits/s speed=0.000118x    frame=   75 fps=8.1 q=37.0 size=       1kB time=00:00:00.04 bitrate= 143.6kbits/s speed=0.00442x    frame=   78 fps=7.9 q=42.0 size=       1kB time=00:00:00.10 bitrate=  58.3kbits/s speed=0.0103x    frame=   80 fps=7.4 q=49.0 size=       1kB time=00:00:00.14 bitrate=  41.8kbits/s speed=0.013x    frame=   83 fps=7.1 q=49.0 size=       1kB time=00:00:00.20 bitrate=  29.3kbits/s speed=0.0171x    frame=   86 fps=6.8 q=49.0 size=       1kB time=00:00:00.26 bitrate=  22.6kbits/s speed=0.0205x    frame=   90 fps=6.4 q=48.0 size=       1kB time=00:00:00.34 bitrate=  17.3kbits/s speed=0.0242x    frame=   94 fps=6.2 q=47.0 size=       1kB time=00:00:00.42 bitrate=  14.0kbits/s speed=0.0279x    frame=   96 fps=6.0 q=46.0 size=       1kB time=00:00:00.46 bitrate=  12.8kbits/s speed=0.029x    frame=   98 fps=6.0 q=47.0 size=       1kB time=00:00:00.50 bitrate=  11.8kbits/s speed=0.0305x    frame=  101 fps=5.9 q=46.0 size=       1kB time=00:00:00.56 bitrate=  10.5kbits/s speed=0.0326x    frame=  102 fps=5.7 q=46.0 size=       1kB time=00:00:00.58 bitrate=  10.1kbits/s speed=0.0325x    frame=  104 fps=5.6 q=46.0 size=       1kB time=00:00:00.62 bitrate=   9.5kbits/s speed=0.0336x    frame=  108 fps=5.6 q=46.0 size=       1kB time=00:00:00.70 bitrate=   8.4kbits/s speed=0.0364x    frame=  109 fps=5.4 q=46.0 size=       1kB time=00:00:00.72 bitrate=   8.2kbits/s speed=0.0357x    frame=  113 fps=5.3 q=46.0 size=       1kB time=00:00:00.80 bitrate=   7.4kbits/s speed=0.0377x    frame=  115 fps=5.2 q=45.0 size=       1kB time=00:00:00.84 bitrate=   7.0kbits/s speed=0.038x    frame=  118 fps=5.2 q=45.0 size=       1kB time=00:00:00.90 bitrate=   6.5kbits/s speed=0.0395x    frame=  121 fps=5.0 q=45.0 size=       1kB time=00:00:00.96 bitrate=   6.1kbits/s speed=0.0398x    frame=  125 fps=5.1 q=45.0 size=       1kB time=00:00:01.04 bitrate=   5.7kbits/s speed=0.0421x    frame=  126 fps=5.0 q=45.0 size=       1kB time=00:00:01.06 bitrate=   5.5kbits/s speed=0.0419x    frame=  127 fps=4.9 q=45.0 size=       1kB time=00:00:01.08 bitrate=   5.4kbits/s speed=0.0415x    frame=  130 fps=4.9 q=45.0 size=       1kB time=00:00:01.14 bitrate=   5.2kbits/s speed=0.0426x    frame=  132 fps=4.8 q=45.0 size=       1kB time=00:00:01.18 bitrate=   5.0kbits/s speed=0.043x    frame=  134 fps=4.7 q=45.0 size=       1kB time=00:00:01.22 bitrate=   4.8kbits/s speed=0.0432x    frame=  136 fps=4.7 q=44.0 size=       1kB time=00:00:01.26 bitrate=   4.7kbits/s speed=0.0436x    frame=  139 fps=4.7 q=44.0 size=       1kB time=00:00:01.32 bitrate=   4.5kbits/s speed=0.0442x    frame=  142 fps=4.5 q=44.0 size=       1kB time=00:00:01.38 bitrate=   4.3kbits/s speed=0.0441x    frame=  144 fps=4.5 q=44.0 size=       1kB time=00:00:01.42 bitrate=   4.1kbits/s speed=0.0445x    frame=  148 fps=4.5 q=44.0 size=       1kB time=00:00:01.50 bitrate=   3.9kbits/s speed=0.0461x    frame=  150 fps=4.4 q=44.0 size=       1kB time=00:00:01.54 bitrate=   3.8kbits/s speed=0.0454x    frame=  152 fps=4.4 q=44.0 size=       1kB time=00:00:01.58 bitrate=   3.7kbits/s speed=0.0456x    frame=  154 fps=4.4 q=44.0 size=       1kB time=00:00:01.62 bitrate=   3.6kbits/s speed=0.046x    frame=  156 fps=4.4 q=44.0 size=       1kB time=00:00:01.66 bitrate=   3.5kbits/s speed=0.0464x    frame=  158 fps=4.3 q=44.0 size=       1kB time=00:00:01.70 bitrate=   3.5kbits/s speed=0.0462x    frame=  159 fps=4.3 q=44.0 size=       1kB time=00:00:01.72 bitrate=   3.4kbits/s speed=0.0461x    frame=  163 fps=4.3 q=44.0 size=       1kB time=00:00:01.80 bitrate=   3.3kbits/s speed=0.0475x    frame=  165 fps=4.3 q=44.0 size=       1kB time=00:00:01.84 bitrate=   3.2kbits/s speed=0.0476x    frame=  166 fps=4.2 q=44.0 size=       1kB time=00:00:01.86 bitrate=   3.2kbits/s speed=0.0468x    frame=  168 fps=4.2 q=44.0 size=       1kB time=00:00:01.90 bitrate=   3.1kbits/s speed=0.0471x    frame=  171 fps=4.2 q=44.0 size=       1kB time=00:00:01.96 bitrate=   3.0kbits/s speed=0.048x    frame=  173 fps=4.2 q=44.0 size=       1kB time=00:00:02.00 bitrate=   2.9kbits/s speed=0.048x    frame=  174 fps=4.1 q=44.0 size=       1kB time=00:00:02.02 bitrate=   2.9kbits/s speed=0.0478x    frame=  177 fps=4.1 q=43.0 size=       1kB time=00:00:02.08 bitrate=   2.8kbits/s speed=0.048x    frame=  179 fps=4.1 q=43.0 size=       1kB time=00:00:02.12 bitrate=   2.8kbits/s speed=0.0482x    frame=  182 fps=4.1 q=43.0 size=       1kB time=00:00:02.18 bitrate=   2.7kbits/s speed=0.0489x    frame=  183 fps=4.0 q=43.0 size=       1kB time=00:00:02.20 bitrate=   2.7kbits/s speed=0.0486x    frame=  184 fps=4.0 q=43.0 size=       1kB time=00:00:02.22 bitrate=   2.7kbits/s speed=0.0484x    frame=  186 fps=4.0 q=43.0 size=       1kB time=00:00:02.26 bitrate=   2.6kbits/s speed=0.0487x    frame=  189 fps=4.0 q=43.0 size=       1kB time=00:00:02.32 bitrate=   2.5kbits/s speed=0.0493x    frame=  191 fps=4.0 q=43.0 size=       1kB time=00:00:02.36 bitrate=   2.5kbits/s speed=0.0489x    frame=  192 fps=3.9 q=43.0 size=       1kB time=00:00:02.38 bitrate=   2.5kbits/s speed=0.0487x    frame=  195 fps=3.9 q=43.0 size=       1kB time=00:00:02.44 bitrate=   2.4kbits/s speed=0.0493x    frame=  197 fps=3.9 q=43.0 size=       1kB time=00:00:02.48 bitrate=   2.4kbits/s speed=0.0496x    frame=  199 fps=3.9 q=43.0 size=       1kB time=00:00:02.52 bitrate=   2.3kbits/s speed=0.0496x    frame=  200 fps=3.9 q=43.0 size=       1kB time=00:00:02.54 bitrate=   2.3kbits/s speed=0.0494x    frame=  202 fps=3.9 q=43.0 size=       1kB time=00:00:02.58 bitrate=   2.3kbits/s speed=0.0496x    frame=  203 fps=3.9 q=43.0 size=       1kB time=00:00:02.60 bitrate=   2.3kbits/s speed=0.0495x    frame=  206 fps=3.9 q=43.0 size=       1kB time=00:00:02.66 bitrate=   2.2kbits/s speed=0.0499x    frame=  208 fps=3.9 q=43.0 size=       1kB time=00:00:02.70 bitrate=   2.2kbits/s speed=0.05x    frame=  210 fps=3.8 q=43.0 size=    5125kB time=00:00:02.74 bitrate=15316.4kbits/s speed=0.0497x    frame=  212 fps=3.8 q=43.0 size=    5125kB time=00:00:02.78 bitrate=15096.1kbits/s speed=0.0498x    frame=  215 fps=3.8 q=43.0 size=    5125kB time=00:00:02.84 bitrate=14777.2kbits/s speed=0.0504x    frame=  217 fps=3.8 q=43.0 size=    5125kB time=00:00:02.88 bitrate=14572.1kbits/s speed=0.0499x    frame=  220 fps=3.8 q=43.0 size=    5125kB time=00:00:02.94 bitrate=14274.8kbits/s speed=0.0502x    frame=  223 fps=3.8 q=43.0 size=    5125kB time=00:00:03.00 bitrate=13989.4kbits/s speed=0.0506x    frame=  225 fps=3.7 q=43.0 size=    5125kB time=00:00:03.04 bitrate=13805.4kbits/s speed=0.0503x    frame=  227 fps=3.7 q=43.0 size=    5125kB time=00:00:03.08 bitrate=13626.1kbits/s speed=0.0504x    frame=  228 fps=3.7 q=43.0 size=    5125kB time=00:00:03.10 bitrate=13538.3kbits/s speed=0.0503x    frame=  229 fps=3.7 q=43.0 size=    5125kB time=00:00:03.12 bitrate=13451.5kbits/s speed=0.0501x    frame=  233 fps=3.7 q=43.0 size=    5125kB time=00:00:03.20 bitrate=13115.3kbits/s speed=0.0502x    frame=  236 fps=3.7 q=43.0 size=    5125kB time=00:00:03.26 bitrate=12874.0kbits/s speed=0.0505x    frame=  238 fps=3.6 q=43.0 size=    5125kB time=00:00:03.30 bitrate=12718.0kbits/s speed=0.0505x    frame=  240 fps=3.6 q=43.0 size=    5125kB time=00:00:03.34 bitrate=12565.7kbits/s speed=0.0506x    frame=  242 fps=3.6 q=43.0 size=    5125kB time=00:00:03.38 bitrate=12417.1kbits/s speed=0.0506x    frame=  244 fps=3.6 q=43.0 size=    5125kB time=00:00:03.42 bitrate=12271.9kbits/s speed=0.0507x    frame=  246 fps=3.6 q=43.0 size=    5125kB time=00:00:03.46 bitrate=12130.1kbits/s speed=0.0508x    frame=  248 fps=3.6 q=43.0 size=    5125kB time=00:00:03.50 bitrate=11991.5kbits/s speed=0.0508x    frame=  250 fps=3.6 q=43.0 size=    5125kB time=00:00:03.54 bitrate=11856.0kbits/s speed=0.0507x    frame=  252 fps=3.6 q=43.0 size=    5125kB time=00:00:03.58 bitrate=11723.6kbits/s speed=0.0509x    frame=  255 fps=3.6 q=43.0 size=    5125kB time=00:00:03.64 bitrate=11530.4kbits/s speed=0.0507x    frame=  256 fps=3.5 q=43.0 size=    5125kB time=00:00:03.66 bitrate=11467.4kbits/s speed=0.0505x    frame=  261 fps=3.5 q=43.0 size=    5125kB time=00:00:03.76 bitrate=11162.5kbits/s speed=0.0511x    frame=  262 fps=3.5 q=43.0 size=    5125kB time=00:00:03.78 bitrate=11103.4kbits/s speed=0.0507x    frame=  263 fps=3.5 q=43.0 size=    5125kB time=00:00:03.80 bitrate=11045.0kbits/s speed=0.0506x    frame=  266 fps=3.5 q=43.0 size=    5125kB time=00:00:03.86 bitrate=10873.4kbits/s speed=0.051x    frame=  268 fps=3.5 q=43.0 size=    5125kB time=00:00:03.90 bitrate=10761.9kbits/s speed=0.0511x    frame=  270 fps=3.5 q=43.0 size=    5125kB time=00:00:03.94 bitrate=10652.7kbits/s speed=0.0507x    frame=  272 fps=3.5 q=43.0 size=    5125kB time=00:00:03.98 bitrate=10545.6kbits/s speed=0.0508x    frame=  275 fps=3.5 q=43.0 size=    5125kB time=00:00:04.04 bitrate=10389.0kbits/s speed=0.0512x    frame=  277 fps=3.4 q=43.0 size=    5125kB time=00:00:04.08 bitrate=10287.2kbits/s speed=0.0508x    frame=  279 fps=3.4 q=42.0 size=    5125kB time=00:00:04.12 bitrate=10187.4kbits/s speed=0.0509x    frame=  282 fps=3.4 q=42.0 size=    5125kB time=00:00:04.18 bitrate=10041.2kbits/s speed=0.0511x    frame=  284 fps=3.4 q=42.0 size=    5125kB time=00:00:04.22 bitrate=9946.0kbits/s speed=0.0512x    frame=  285 fps=3.4 q=42.0 size=    5125kB time=00:00:04.24 bitrate=9899.1kbits/s speed=0.051x    frame=  288 fps=3.4 q=42.0 size=    5125kB time=00:00:04.30 bitrate=9761.0kbits/s speed=0.0514x    frame=  289 fps=3.4 q=42.0 size=    5125kB time=00:00:04.32 bitrate=9715.8kbits/s speed=0.0509x    frame=  291 fps=3.4 q=42.0 size=    5125kB time=00:00:04.36 bitrate=9626.7kbits/s speed=0.0509x    frame=  294 fps=3.4 q=42.0 size=    5125kB time=00:00:04.42 bitrate=9496.1kbits/s speed=0.0512x    frame=  297 fps=3.4 q=42.0 size=    5125kB time=00:00:04.48 bitrate=9368.9kbits/s speed=0.0511x    frame=  300 fps=3.4 q=42.0 size=    5125kB time=00:00:04.54 bitrate=9245.1kbits/s speed=0.0513x    frame=  301 fps=3.4 q=42.0 size=    5125kB time=00:00:04.56 bitrate=9204.6kbits/s speed=0.0512x    frame=  303 fps=3.4 q=42.0 size=    5125kB time=00:00:04.60 bitrate=9124.6kbits/s speed=0.0513x    frame=  304 fps=3.4 q=42.0 size=    5125kB time=00:00:04.62 bitrate=9085.1kbits/s speed=0.051x    frame=  306 fps=3.4 q=42.0 size=    5125kB time=00:00:04.66 bitrate=9007.1kbits/s speed=0.0511x    frame=  309 fps=3.4 q=42.0 size=    5125kB time=00:00:04.72 bitrate=8892.6kbits/s speed=0.0514x    frame=  312 fps=3.3 q=42.0 size=    5125kB time=00:00:04.78 bitrate=8781.0kbits/s speed=0.051x    frame=  314 fps=3.3 q=42.0 size=    5125kB time=00:00:04.82 bitrate=8708.2kbits/s speed=0.0511x    frame=  318 fps=3.3 q=43.0 size=    5125kB time=00:00:04.90 bitrate=8566.0kbits/s speed=0.0514x    frame=  320 fps=3.3 q=43.0 size=    5125kB time=00:00:04.94 bitrate=8496.7kbits/s speed=0.0513x    frame=  326 fps=3.4 q=43.0 size=    8707kB time=00:00:05.06 bitrate=14093.9kbits/s speed=0.0523x    frame=  327 fps=3.4 q=43.0 size=    8707kB time=00:00:05.08 bitrate=14038.4kbits/s speed=0.0522x    frame=  329 fps=3.4 q=43.0 size=    8707kB time=00:00:05.12 bitrate=13928.8kbits/s speed=0.0522x    frame=  332 fps=3.4 q=43.0 size=    8707kB time=00:00:05.18 bitrate=13767.5kbits/s speed=0.0524x    frame=  333 fps=3.3 q=43.0 size=    8707kB time=00:00:05.20 bitrate=13714.5kbits/s speed=0.0522x    frame=  335 fps=3.3 q=43.0 size=    8707kB time=00:00:05.24 bitrate=13609.9kbits/s speed=0.0523x    frame=  338 fps=3.4 q=43.0 size=    8707kB time=00:00:05.30 bitrate=13455.8kbits/s speed=0.0526x    frame=  340 fps=3.3 q=43.0 size=    8707kB time=00:00:05.34 bitrate=13355.0kbits/s speed=0.0522x    frame=  342 fps=3.3 q=43.0 size=    8707kB time=00:00:05.38 bitrate=13255.8kbits/s speed=0.0523x    frame=  345 fps=3.3 q=43.0 size=    8707kB time=00:00:05.44 bitrate=13109.6kbits/s speed=0.0525x    frame=  347 fps=3.3 q=43.0 size=    8707kB time=00:00:05.48 bitrate=13013.9kbits/s speed=0.0526x    frame=  348 fps=3.3 q=43.0 size=    8707kB time=00:00:05.50 bitrate=12966.6kbits/s speed=0.0523x    frame=  350 fps=3.3 q=43.0 size=    8707kB time=00:00:05.54 bitrate=12873.0kbits/s speed=0.0524x    frame=  352 fps=3.3 q=43.0 size=    8707kB time=00:00:05.58 bitrate=12780.7kbits/s speed=0.0524x    frame=  355 fps=3.3 q=43.0 size=    8707kB time=00:00:05.64 bitrate=12644.8kbits/s speed=0.0525x    frame=  356 fps=3.3 q=43.0 size=    8707kB time=00:00:05.66 bitrate=12600.1kbits/s speed=0.0523x    frame=  358 fps=3.3 q=43.0 size=    8707kB time=00:00:05.70 bitrate=12511.7kbits/s speed=0.0523x    frame=  361 fps=3.3 q=43.0 size=    8707kB time=00:00:05.76 bitrate=12381.4kbits/s speed=0.0526x    frame=  363 fps=3.3 q=43.0 size=    8707kB time=00:00:05.80 bitrate=12296.0kbits/s speed=0.0525x    frame=  364 fps=3.3 q=43.0 size=    8707kB time=00:00:05.82 bitrate=12253.8kbits/s speed=0.0523x    frame=  366 fps=3.3 q=43.0 size=    8707kB time=00:00:05.86 bitrate=12170.1kbits/s speed=0.0524x    frame=  368 fps=3.3 q=43.0 size=    8707kB time=00:00:05.90 bitrate=12087.7kbits/s speed=0.0524x    frame=  370 fps=3.3 q=43.0 size=    8707kB time=00:00:05.94 bitrate=12006.3kbits/s speed=0.0525x    frame=  372 fps=3.3 q=43.0 size=    8707kB time=00:00:05.98 bitrate=11926.0kbits/s speed=0.0524x    frame=  374 fps=3.3 q=43.0 size=    8707kB time=00:00:06.02 bitrate=11846.7kbits/s speed=0.0524x    frame=  378 fps=3.3 q=43.0 size=    8707kB time=00:00:06.10 bitrate=11691.4kbits/s speed=0.0528x    frame=  379 fps=3.2 q=43.0 size=    8707kB time=00:00:06.12 bitrate=11653.2kbits/s speed=0.0524x    frame=  381 fps=3.2 q=43.0 size=    8707kB time=00:00:06.16 bitrate=11577.5kbits/s speed=0.0525x    frame=  385 fps=3.2 q=43.0 size=    8707kB time=00:00:06.24 bitrate=11429.1kbits/s speed=0.0524x    frame=  388 fps=3.2 q=43.0 size=    8707kB time=00:00:06.30 bitrate=11320.3kbits/s speed=0.0526x    frame=  390 fps=3.2 q=43.0 size=    8707kB time=00:00:06.34 bitrate=11248.9kbits/s speed=0.0527x    frame=  392 fps=3.2 q=43.0 size=    8707kB time=00:00:06.38 bitrate=11178.4kbits/s speed=0.0527x    frame=  393 fps=3.2 q=43.0 size=    8707kB time=00:00:06.40 bitrate=11143.5kbits/s speed=0.0526x    frame=  395 fps=3.2 q=43.0 size=    8707kB time=00:00:06.44 bitrate=11074.2kbits/s speed=0.0526x    frame=  398 fps=3.2 q=43.0 size=    8707kB time=00:00:06.50 bitrate=10972.0kbits/s speed=0.0526x    frame=  401 fps=3.2 q=42.0 size=    8707kB time=00:00:06.56 bitrate=10871.7kbits/s speed=0.0528x    frame=  402 fps=3.2 q=42.0 size=    8707kB time=00:00:06.58 bitrate=10838.7kbits/s speed=0.0525x    frame=  406 fps=3.2 q=42.0 size=    8707kB time=00:00:06.66 bitrate=10708.5kbits/s speed=0.0527x    frame=  407 fps=3.2 q=42.0 size=    8707kB time=00:00:06.68 bitrate=10676.4kbits/s speed=0.0526x    frame=  410 fps=3.2 q=42.0 size=    8707kB time=00:00:06.74 bitrate=10581.4kbits/s speed=0.0526x    frame=  412 fps=3.2 q=42.0 size=    8707kB time=00:00:06.78 bitrate=10519.0kbits/s speed=0.0527x    frame=  414 fps=3.2 q=42.0 size=    8707kB time=00:00:06.82 bitrate=10457.3kbits/s speed=0.0526x    frame=  416 fps=3.2 q=42.0 size=    8707kB time=00:00:06.86 bitrate=10396.3kbits/s speed=0.0527x    frame=  418 fps=3.2 q=42.0 size=    8707kB time=00:00:06.90 bitrate=10336.1kbits/s speed=0.0526x    frame=  420 fps=3.2 q=42.0 size=    8707kB time=00:00:06.94 bitrate=10276.5kbits/s speed=0.0527x    frame=  422 fps=3.2 q=42.0 size=    8707kB time=00:00:06.98 bitrate=10217.6kbits/s speed=0.0528x    frame=  424 fps=3.2 q=42.0 size=    8707kB time=00:00:07.02 bitrate=10159.4kbits/s speed=0.0526x    frame=  427 fps=3.2 q=42.0 size=    8707kB time=00:00:07.08 bitrate=10073.3kbits/s speed=0.0526x    frame=  429 fps=3.2 q=42.0 size=    8707kB time=00:00:07.12 bitrate=10016.7kbits/s speed=0.0527x    frame=  431 fps=3.2 q=42.0 size=    8707kB time=00:00:07.16 bitrate=9960.8kbits/s speed=0.0527x    frame=  433 fps=3.2 q=42.0 size=    8707kB time=00:00:07.20 bitrate=9905.5kbits/s speed=0.0527x    frame=  435 fps=3.2 q=42.0 size=    8707kB time=00:00:07.24 bitrate=9850.7kbits/s speed=0.0527x    frame=  436 fps=3.2 q=42.0 size=    8707kB time=00:00:07.26 bitrate=9823.6kbits/s speed=0.0526x    frame=  440 fps=3.2 q=42.0 size=    8707kB time=00:00:07.34 bitrate=9716.6kbits/s speed=0.0529x    frame=  442 fps=3.2 q=42.0 size=    8707kB time=00:00:07.38 bitrate=9663.9kbits/s speed=0.0526x    frame=  444 fps=3.2 q=42.0 size=    8707kB time=00:00:07.42 bitrate=9611.8kbits/s speed=0.0527x    frame=  447 fps=3.2 q=42.0 size=    8707kB time=00:00:07.48 bitrate=9534.7kbits/s speed=0.0528x    frame=  450 fps=3.1 q=42.0 size=    8707kB time=00:00:07.54 bitrate=9458.9kbits/s speed=0.0527x    frame=  452 fps=3.1 q=42.0 size=    8707kB time=00:00:07.58 bitrate=9408.9kbits/s speed=0.0527x    frame=  455 fps=3.2 q=42.0 size=    8707kB time=00:00:07.64 bitrate=9335.1kbits/s speed=0.0529x    frame=  457 fps=3.1 q=42.0 size=    8707kB time=00:00:07.68 bitrate=9286.5kbits/s speed=0.0528x    frame=  458 fps=3.1 q=42.0 size=    8707kB time=00:00:07.70 bitrate=9262.3kbits/s speed=0.0527x    frame=  460 fps=3.1 q=42.0 size=    8707kB time=00:00:07.74 bitrate=9214.5kbits/s speed=0.0527x    frame=  463 fps=3.1 q=42.0 size=    8707kB time=00:00:07.80 bitrate=9143.6kbits/s speed=0.0529x    frame=  465 fps=3.1 q=42.0 size=    8707kB time=00:00:07.84 bitrate=9097.0kbits/s speed=0.0529x    frame=  466 fps=3.1 q=42.0 size=    8707kB time=00:00:07.86 bitrate=9073.8kbits/s speed=0.0528x    frame=  467 fps=3.1 q=42.0 size=    8707kB time=00:00:07.88 bitrate=9050.8kbits/s speed=0.0527x    frame=  470 fps=3.1 q=42.0 size=    8707kB time=00:00:07.94 bitrate=8982.4kbits/s speed=0.0528x    frame=  472 fps=3.1 q=42.0 size=    8707kB time=00:00:07.98 bitrate=8937.4kbits/s speed=0.0529x    frame=  474 fps=3.1 q=42.0 size=   13829kB time=00:00:08.02 bitrate=14124.3kbits/s speed=0.0527x    frame=  476 fps=3.1 q=42.0 size=   13829kB time=00:00:08.06 bitrate=14054.2kbits/s speed=0.0527x    frame=  479 fps=3.1 q=42.0 size=   13829kB time=00:00:08.12 bitrate=13950.4kbits/s speed=0.0529x    frame=  481 fps=3.1 q=42.0 size=   13829kB time=00:00:08.16 bitrate=13882.0kbits/s speed=0.0529x    frame=  482 fps=3.1 q=42.0 size=   13829kB time=00:00:08.18 bitrate=13848.0kbits/s speed=0.0528x    frame=  484 fps=3.1 q=42.0 size=   13829kB time=00:00:08.22 bitrate=13780.7kbits/s speed=0.0529x    frame=  486 fps=3.1 q=42.0 size=   13829kB time=00:00:08.26 bitrate=13713.9kbits/s speed=0.0529x    frame=  488 fps=3.1 q=42.0 size=   13829kB time=00:00:08.30 bitrate=13647.9kbits/s speed=0.0529x    frame=  489 fps=3.1 q=42.0 size=   13829kB time=00:00:08.32 bitrate=13615.1kbits/s speed=0.0529x    frame=  491 fps=3.1 q=42.0 size=   13829kB time=00:00:08.36 bitrate=13549.9kbits/s speed=0.0529x    frame=  493 fps=3.1 q=42.0 size=   13829kB time=00:00:08.40 bitrate=13485.4kbits/s speed=0.0529x    frame=  496 fps=3.1 q=42.0 size=   13829kB time=00:00:08.46 bitrate=13389.8kbits/s speed=0.0529x    frame=  498 fps=3.1 q=42.0 size=   13829kB time=00:00:08.50 bitrate=13326.8kbits/s speed=0.0529x    frame=  500 fps=3.1 q=42.0 size=   13829kB time=00:00:08.54 bitrate=13264.4kbits/s speed=0.0529x    frame=  500 fps=2.7 q=-1.0 Lsize=   16956kB time=00:00:09.94 bitrate=13972.7kbits/s speed=0.0535x    
video:16951kB audio:0kB subtitle:0kB other streams:0kB global headers:0kB muxing overhead: 0.027388%
bench: utime=703.528s
bench: maxrss=2549576kB
[libx264 @ 0x3c6d1c0] frame I:2     Avg QP:32.35  size:543824
[libx264 @ 0x3c6d1c0] frame P:134   Avg QP:41.65  size: 66463
[libx264 @ 0x3c6d1c0] frame B:364   Avg QP:44.72  size: 20230
[libx264 @ 0x3c6d1c0] consecutive B-frames:  0.4%  2.8% 14.4% 82.4%
[libx264 @ 0x3c6d1c0] mb I  I16..4: 14.2% 78.2%  7.6%
[libx264 @ 0x3c6d1c0] mb P  I16..4:  1.5%  4.6%  0.0%  P16..4: 38.2%  5.1%  6.0%  0.0%  0.0%    skip:44.5%
[libx264 @ 0x3c6d1c0] mb B  I16..4:  0.0%  0.1%  0.0%  B16..8: 44.9%  1.9%  0.2%  direct: 0.4%  skip:52.5%  L0:43.3% L1:56.1% BI: 0.6%
[libx264 @ 0x3c6d1c0] final ratefactor: 34.31
[libx264 @ 0x3c6d1c0] 8x8 transform intra:75.9% inter:85.4%
[libx264 @ 0x3c6d1c0] direct mvs  spatial:99.2% temporal:0.8%
[libx264 @ 0x3c6d1c0] coded y,uvDC,uvAC intra: 41.6% 53.3% 19.7% inter: 3.7% 5.1% 0.1%
[libx264 @ 0x3c6d1c0] i16 v,h,dc,p: 36% 21%  7% 36%
[libx264 @ 0x3c6d1c0] i8 v,h,dc,ddl,ddr,vr,hd,vl,hu:  7%  4%  4% 12% 16% 16% 15% 13% 12%
[libx264 @ 0x3c6d1c0] i4 v,h,dc,ddl,ddr,vr,hd,vl,hu:  7%  4%  1% 12% 16% 16% 16% 13% 16%
[libx264 @ 0x3c6d1c0] i8c dc,h,v,p: 46% 17% 18% 19%
[libx264 @ 0x3c6d1c0] Weighted P-Frames: Y:0.7% UV:0.0%
[libx264 @ 0x3c6d1c0] ref P L0: 62.4%  8.0% 13.5%  4.0%  3.6%  3.0%  3.2%  2.2%  0.0%
[libx264 @ 0x3c6d1c0] ref B L0: 94.3%  3.3%  1.3%  0.4%  0.3%  0.2%  0.2%
[libx264 @ 0x3c6d1c0] ref B L1: 98.9%  1.1%
[libx264 @ 0x3c6d1c0] kb/s:13885.93
